<svg xmlns="http://www.w3.org/2000/svg" viewBox="0 0 500 500"><path fill="#a03360" d="M15.1 249.9C12.9 122.2 121.9 13.5 252.2 14.6c126.6 1.1 236.5 105.8 233.8 241-2.5 123.9-104.8 233.3-242 230.3-123.4-2.7-230.4-105.1-228.9-236zM219.4 205c.5-1.4.6-2 .9-2.6 13.9-27.9 37.3-40.6 67.6-42.3 9.5-.5 18.8 1.8 28.1 3.3 4 .6 5.6-.8 6.5-4.2 2.5-9.3 5.2-18.5 7.6-27.8 1.6-5.9.5-7.8-5.4-9.4-6.2-1.8-12.6-2.5-19-3.2-10.1-1.1-20.4-1.3-30.4-.3-17.1 1.8-33.3 7.4-48.4 15.7-13.8 7.7-25.9 17.6-35.7 29.9-8.9 11.2-16 23.6-20.4 37.4-.8 2.5-2.3 3.8-5.2 3.7-4.5-.2-9-.2-13.5 0-3.8.1-7 1.4-7 6-.1 7-.1 14 0 21 .1 3.8 2.1 5.7 5.9 6 3.1.2 6.2.7 9.4.9 1.9.1 2.7.9 2.7 2.8v5c0 10.8 0 10.8-10.7 11.2h-1c-3.9.6-6.5 2.2-6.3 6.8.2 6.3-.1 12.7.1 19 .1 5.2 2.2 7.1 7.3 7.2 3.3 0 6.7.4 10-.1 5.1-.7 7.3 1.9 8.5 6.3 3.3 12.1 9.1 23.2 16.4 33.2 8.6 11.8 19 21.8 31.3 30.2 19.7 13.5 41.8 18.9 64.9 21.2 14.8 1.4 29.3-2 43.6-5.8 7.1-1.9 8.2-4.1 6.6-11.3-1.8-8.2-3.8-16.5-5.7-24.7-1.3-5.3-3.4-6.8-8.5-5.9-3.7.6-7.4 1.5-11.2 2.3-12.1 2.3-24.1 3.5-36.3.2-23-6.2-39.8-19.8-50.5-41-1.5-2.9-1.6-4.7 2.8-4.7 22 .2 44 0 66 .1 3.3 0 6.2-.4 7.1-4 1.7-6.7 3.6-13.5 4.5-20.3 1-7.5-.6-8.7-8.1-8.7h-69c-13.7 0-13.5 0-13.9-13.7-.1-5 1.2-6.4 6.3-6.4 28 .3 56 .1 84 .2 3.1 0 5.7-.3 6.6-3.8 1.8-7.1 3.6-14.1 4.1-21.4.4-5.9-1.6-7.8-7.5-7.8H281c-20.4-.2-40.7-.2-61.6-.2z" opacity=".5"/><path fill="#fefefe" d="M219.4 205h85c5.9 0 7.9 1.9 7.5 7.8-.5 7.3-2.4 14.4-4.1 21.4-.9 3.5-3.5 3.8-6.6 3.8-28-.1-56 .1-84-.2-5.1 0-6.5 1.3-6.3 6.4.3 13.7.1 13.7 13.9 13.7h69c7.6 0 9.1 1.2 8.1 8.7-.9 6.9-2.8 13.6-4.5 20.3-.9 3.5-3.8 4-7.1 4-22-.1-44 0-66-.1-4.4 0-4.3 1.8-2.8 4.7 10.7 21.2 27.5 34.8 50.5 41 12.3 3.3 24.2 2.1 36.3-.2 3.7-.7 7.4-1.6 11.2-2.3 5.1-.9 7.3.6 8.5 5.9 2 8.2 3.9 16.4 5.7 24.7 1.6 7.2.5 9.4-6.6 11.3-14.3 3.8-28.8 7.2-43.6 5.8-23.1-2.2-45.1-7.7-64.9-21.2-12.3-8.4-22.8-18.4-31.3-30.2-7.3-10-13.1-21.1-16.4-33.2-1.2-4.3-3.4-6.9-8.5-6.3-3.3.4-6.7.1-10 .1-5.2-.1-7.2-2-7.3-7.2-.1-6.3.1-12.7-.1-19-.1-4.5 2.5-6.2 6.3-6.8.3-.1.7 0 1 0 10.7-.5 10.7-.5 10.7-11.2v-5c0-1.8-.8-2.7-2.7-2.8-3.1-.2-6.2-.7-9.4-.9-3.8-.3-5.9-2.2-5.9-6-.1-7-.1-14 0-21 0-4.6 3.2-5.8 7-6 4.5-.2 9-.2 13.5 0 2.8.1 4.4-1.2 5.2-3.7 4.5-13.7 11.5-26.1 20.4-37.4 9.8-12.3 21.9-22.3 35.7-29.9 15.1-8.4 31.3-13.9 48.4-15.7 10-1.1 20.2-.8 30.4.3 6.4.7 12.8 1.5 19 3.2 5.9 1.7 6.9 3.5 5.4 9.4-2.5 9.3-5.1 18.5-7.6 27.8-.9 3.3-2.5 4.8-6.5 4.2-9.3-1.4-18.5-3.8-28.1-3.3-30.3 1.7-53.7 14.4-67.6 42.3-.2.8-.3 1.4-.8 2.8z"/></svg>