<svg xmlns="http://www.w3.org/2000/svg" xmlns:xlink="http://www.w3.org/1999/xlink" width="500" zoomAndPan="magnify" viewBox="0 0 375 374.999991" height="500" preserveAspectRatio="xMidYMid meet" version="1.0"><defs><g/><clipPath id="506c3f41e4"><path d="M 129 165.359375 L 157 165.359375 L 157 217.078125 L 129 217.078125 Z M 129 165.359375 " clip-rule="nonzero"/></clipPath><clipPath id="7878ef9257"><path d="M 117.085938 106 L 267 106 L 267 193 L 117.085938 193 Z M 117.085938 106 " clip-rule="nonzero"/></clipPath><clipPath id="ab8506074f"><path d="M 172 91.242188 L 208 91.242188 L 208 156 L 172 156 Z M 172 91.242188 " clip-rule="nonzero"/></clipPath><clipPath id="893845ca31"><path d="M 160 173 L 188.71875 173 L 188.71875 217.078125 L 160 217.078125 Z M 160 173 " clip-rule="nonzero"/></clipPath><clipPath id="a56a7d4fbf"><path d="M 192.085938 172.097656 L 220 172.097656 L 220 217.078125 L 192.085938 217.078125 Z M 192.085938 172.097656 " clip-rule="nonzero"/></clipPath><clipPath id="97850e5dd6"><path d="M 223 139 L 252 139 L 252 217.078125 L 223 217.078125 Z M 223 139 " clip-rule="nonzero"/></clipPath></defs><g clip-path="url(#506c3f41e4)"><path fill="#ff914d" d="M 152.210938 209.300781 C 152.210938 210.933594 150.882812 212.261719 149.238281 212.261719 L 137.171875 212.261719 C 135.539062 212.261719 134.210938 210.933594 134.210938 209.300781 L 134.210938 190.839844 C 135.316406 190.207031 136.355469 189.417969 137.273438 188.496094 L 152.210938 173.558594 Z M 155.316406 165.585938 C 154.460938 165.296875 153.5 165.519531 152.855469 166.164062 L 133.894531 185.113281 C 133.023438 185.996094 131.972656 186.707031 130.878906 187.167969 C 129.996094 187.546875 129.433594 188.402344 129.433594 189.363281 L 129.433594 209.300781 C 129.433594 213.566406 132.90625 217.039062 137.171875 217.039062 L 149.25 217.039062 C 153.515625 217.039062 156.988281 213.566406 156.988281 209.300781 L 156.988281 168.609375 C 156.988281 168.257812 156.960938 167.886719 156.910156 167.558594 C 156.804688 166.652344 156.1875 165.886719 155.316406 165.585938 " fill-opacity="1" fill-rule="nonzero"/></g><g clip-path="url(#7878ef9257)"><path fill="#ff914d" d="M 261.402344 112.984375 C 261.019531 120.761719 260.652344 128.527344 260.296875 136.316406 C 260.242188 137.539062 259.992188 137.683594 259.71875 137.828125 C 259.703125 137.84375 259.691406 137.84375 259.675781 137.855469 C 259.519531 137.710938 259.28125 137.472656 259.113281 137.304688 C 259.113281 137.304688 258.992188 137.199219 258.992188 137.183594 L 251.625 129.882812 C 250.703125 128.960938 249.1875 128.960938 248.253906 129.894531 L 191.613281 186.535156 C 191.019531 187.101562 190.269531 187.417969 189.480469 187.417969 C 188.914062 187.417969 188.085938 187.273438 187.375 186.5625 L 156.84375 156.03125 C 156.398438 155.582031 155.792969 155.332031 155.160156 155.332031 C 154.527344 155.332031 153.921875 155.582031 153.476562 156.03125 L 129.183594 180.324219 C 128.589844 180.890625 127.839844 181.207031 127.050781 181.207031 C 126.484375 181.207031 125.65625 181.0625 124.945312 180.351562 L 123.613281 179.019531 C 123.0625 178.46875 122.746094 177.71875 122.746094 176.914062 C 122.746094 176.113281 123.0625 175.363281 123.613281 174.808594 L 153.027344 145.398438 C 153.621094 144.832031 154.371094 144.515625 155.160156 144.515625 C 155.726562 144.515625 156.554688 144.660156 157.265625 145.371094 L 187.796875 175.902344 C 188.730469 176.835938 190.246094 176.835938 191.179688 175.902344 L 242.742188 124.328125 C 243.199219 123.878906 243.449219 123.261719 243.449219 122.617188 C 243.4375 121.972656 243.175781 121.367188 242.714844 120.917969 C 240.910156 119.167969 239.148438 117.390625 237.371094 115.601562 L 235.238281 113.46875 C 235.121094 113.351562 234.882812 113.101562 234.738281 112.929688 C 234.738281 112.929688 234.738281 112.929688 234.753906 112.917969 C 234.792969 112.824219 234.816406 112.785156 234.816406 112.773438 C 234.988281 112.707031 235.542969 112.679688 235.898438 112.65625 L 260.191406 111.507812 L 260.574219 111.507812 C 261.085938 111.507812 261.324219 111.5625 261.324219 111.574219 C 261.363281 111.640625 261.441406 111.890625 261.425781 112.484375 Z M 264.796875 108.285156 C 263.796875 107.257812 262.375 106.734375 260.574219 106.734375 L 235.671875 107.890625 C 234.292969 107.957031 231.726562 108.074219 230.421875 110.902344 C 228.976562 113.96875 230.988281 115.984375 231.855469 116.851562 L 233.960938 118.972656 C 235.199219 120.207031 236.410156 121.445312 237.660156 122.65625 L 189.480469 170.820312 L 160.648438 141.988281 C 159.1875 140.539062 157.238281 139.738281 155.160156 139.738281 C 153.121094 139.738281 151.1875 140.527344 149.671875 141.988281 L 120.234375 171.425781 C 118.773438 172.886719 117.96875 174.835938 117.96875 176.914062 C 117.96875 178.996094 118.773438 180.941406 120.234375 182.402344 L 121.5625 183.730469 C 123.023438 185.179688 124.96875 185.984375 127.050781 185.984375 C 129.089844 185.984375 131.023438 185.191406 132.539062 183.730469 L 155.160156 161.109375 L 183.992188 189.945312 C 185.453125 191.40625 187.402344 192.195312 189.480469 192.195312 C 191.519531 192.195312 193.457031 191.40625 194.96875 189.945312 L 249.953125 134.960938 L 255.714844 140.6875 C 256.503906 141.476562 257.714844 142.6875 259.625 142.6875 C 260.386719 142.6875 261.175781 142.476562 261.96875 142.054688 C 264.914062 140.460938 265.046875 137.488281 265.074219 136.515625 C 265.429688 128.734375 265.796875 120.984375 266.164062 113.21875 L 266.191406 112.695312 C 266.269531 110.8125 265.796875 109.324219 264.796875 108.285156 " fill-opacity="1" fill-rule="nonzero"/></g><g clip-path="url(#ab8506074f)"><path fill="#ff914d" d="M 177.191406 140.660156 C 177.480469 139.554688 177.796875 138.433594 178.125 137.304688 C 180.570312 138.488281 183.269531 139.25 186.363281 139.644531 C 188.757812 139.910156 190.902344 139.621094 192.917969 138.75 C 195.167969 137.765625 196.691406 135.828125 197.023438 133.578125 C 197.339844 131.316406 196.390625 129.011719 194.457031 127.433594 C 193.46875 126.628906 192.296875 125.945312 190.890625 125.328125 C 190.007812 124.945312 189.125 124.605469 188.246094 124.25 C 186.324219 123.472656 184.507812 122.75 182.847656 121.761719 C 178.886719 119.390625 177.152344 116.535156 177.386719 112.746094 C 177.664062 108.179688 180.113281 105.113281 184.953125 103.363281 C 188.007812 102.257812 188.664062 101.324219 188.664062 98.058594 L 188.652344 97.230469 C 188.652344 96.835938 188.652344 96.441406 188.652344 96.007812 L 189.957031 96.007812 C 190.402344 96.007812 190.875 96.007812 191.257812 96.019531 C 191.269531 96.402344 191.269531 96.875 191.269531 97.324219 C 191.269531 101.113281 192.140625 102.125 195.929688 102.71875 C 197.46875 102.957031 199.035156 103.390625 200.679688 104.085938 L 200.429688 104.957031 C 200.179688 105.863281 199.917969 106.773438 199.640625 107.667969 C 196.589844 106.335938 193.363281 105.757812 189.996094 105.941406 C 189.113281 106.007812 187.941406 106.140625 186.757812 106.640625 C 184.679688 107.546875 183.269531 109.3125 182.992188 111.351562 C 182.730469 113.378906 183.613281 115.417969 185.335938 116.800781 C 186.875 118.0625 188.574219 118.851562 189.902344 119.40625 L 190.441406 119.628906 C 192.691406 120.550781 194.824219 121.417969 196.863281 122.550781 C 199.863281 124.210938 201.929688 127 202.535156 130.195312 C 203.117188 133.222656 202.339844 136.210938 200.363281 138.621094 C 198.8125 140.476562 196.8125 141.765625 194.363281 142.449219 C 192.019531 143.121094 190.785156 144.777344 190.890625 147.148438 C 190.929688 147.964844 190.914062 148.765625 190.902344 149.570312 C 190.902344 149.792969 190.902344 150.015625 190.890625 150.253906 C 189.957031 150.265625 189.035156 150.265625 188.074219 150.253906 C 188.074219 149.9375 188.074219 149.621094 188.058594 149.320312 C 188.058594 148.859375 188.046875 148.410156 188.046875 147.921875 C 188.007812 144.726562 187.085938 143.660156 183.953125 143.148438 C 181.242188 142.738281 179.136719 142.132812 177.335938 141.265625 C 177.230469 141.210938 177.136719 141.171875 177.058594 141.132812 C 177.085938 141 177.125 140.855469 177.191406 140.660156 Z M 175.253906 145.566406 C 177.503906 146.648438 180.03125 147.382812 183.203125 147.871094 C 183.230469 147.871094 183.242188 147.871094 183.269531 147.882812 C 183.269531 147.910156 183.269531 147.9375 183.269531 147.949219 C 183.269531 148.4375 183.269531 148.910156 183.28125 149.382812 C 183.28125 149.84375 183.296875 150.292969 183.296875 150.753906 C 183.296875 153.253906 184.941406 154.964844 187.402344 155.015625 C 188.113281 155.03125 188.808594 155.042969 189.507812 155.042969 C 190.21875 155.042969 190.914062 155.03125 191.640625 155.015625 C 194.046875 154.964844 195.679688 153.292969 195.679688 150.871094 C 195.679688 150.464844 195.679688 150.054688 195.691406 149.632812 C 195.707031 148.777344 195.71875 147.921875 195.679688 147.042969 C 199.050781 146.09375 201.863281 144.292969 204.050781 141.671875 C 206.917969 138.199219 208.078125 133.683594 207.234375 129.300781 C 206.367188 124.710938 203.429688 120.722656 199.179688 118.367188 C 196.902344 117.101562 194.535156 116.140625 192.257812 115.195312 L 191.730469 114.984375 C 190.71875 114.5625 189.429688 113.96875 188.363281 113.089844 C 187.914062 112.734375 187.691406 112.339844 187.746094 111.984375 C 187.785156 111.613281 188.140625 111.257812 188.652344 111.035156 C 189.046875 110.863281 189.546875 110.773438 190.296875 110.71875 C 193.101562 110.5625 195.707031 111.074219 198.234375 112.273438 C 198.851562 112.574219 200.273438 113.273438 201.761719 112.65625 C 203.246094 112.035156 203.761719 110.507812 203.984375 109.824219 C 204.351562 108.640625 204.695312 107.46875 205.035156 106.273438 L 205.40625 104.996094 C 206.078125 102.796875 205.117188 100.785156 202.996094 99.875 C 200.890625 98.941406 198.746094 98.308594 196.652344 97.996094 C 196.457031 97.96875 196.246094 97.929688 196.046875 97.902344 C 196.046875 97.703125 196.046875 97.507812 196.046875 97.308594 C 196.007812 92.308594 194.929688 91.230469 189.957031 91.230469 L 188.257812 91.230469 C 185.242188 91.335938 183.941406 92.664062 183.886719 95.613281 C 183.863281 96.191406 183.875 96.742188 183.875 97.296875 L 183.886719 98.058594 C 183.886719 98.246094 183.886719 98.46875 183.886719 98.664062 C 183.691406 98.730469 183.46875 98.824219 183.21875 98.902344 C 176.675781 101.285156 173.003906 105.96875 172.609375 112.457031 C 172.269531 118.0625 174.886719 122.578125 180.402344 125.878906 C 182.375 127.050781 184.453125 127.878906 186.46875 128.683594 C 187.308594 129.027344 188.140625 129.355469 188.980469 129.722656 C 190.007812 130.171875 190.796875 130.632812 191.441406 131.144531 C 192.0625 131.65625 192.375 132.300781 192.285156 132.921875 C 192.191406 133.527344 191.746094 134.054688 191.007812 134.367188 C 189.785156 134.894531 188.441406 135.066406 186.929688 134.894531 C 184.125 134.554688 181.742188 133.828125 179.625 132.710938 C 178.941406 132.355469 177.519531 131.59375 176.003906 132.222656 C 174.480469 132.855469 174.003906 134.433594 173.78125 135.171875 C 173.335938 136.59375 172.953125 138 172.558594 139.460938 C 171.675781 142.542969 172.398438 144.1875 175.253906 145.566406 " fill-opacity="1" fill-rule="nonzero"/></g><g clip-path="url(#893845ca31)"><path fill="#ff914d" d="M 183.679688 209.328125 C 183.679688 210.960938 182.347656 212.289062 180.703125 212.289062 L 168.636719 212.289062 C 167.003906 212.289062 165.675781 210.960938 165.675781 209.328125 L 165.675781 181.269531 L 177.847656 193.445312 L 179.164062 194.773438 C 180.480469 196.078125 182.007812 197.117188 183.679688 197.839844 Z M 186.730469 193.867188 C 185.179688 193.417969 183.730469 192.5625 182.546875 191.390625 L 165.714844 174.546875 C 165.1875 174.035156 164.449219 173.769531 163.726562 173.863281 C 162.988281 173.953125 162.34375 174.386719 161.964844 175.019531 C 161.265625 176.191406 160.898438 177.558594 160.898438 178.941406 L 160.898438 209.328125 C 160.898438 213.59375 164.371094 217.078125 168.636719 217.078125 L 180.703125 217.078125 C 184.980469 217.078125 188.453125 213.59375 188.453125 209.328125 L 188.453125 196.167969 C 188.453125 195.101562 187.757812 194.167969 186.730469 193.867188 " fill-opacity="1" fill-rule="nonzero"/></g><g clip-path="url(#a56a7d4fbf)"><path fill="#ff914d" d="M 215.144531 209.328125 C 215.144531 210.960938 213.816406 212.289062 212.183594 212.289062 L 200.113281 212.289062 C 198.484375 212.289062 197.140625 210.960938 197.140625 209.328125 L 197.140625 196.851562 C 198.089844 196.261719 198.96875 195.5625 199.773438 194.761719 L 215.144531 179.390625 Z M 214.289062 173.492188 L 196.390625 191.390625 C 195.601562 192.167969 194.707031 192.800781 193.71875 193.273438 C 192.890625 193.667969 192.363281 194.511719 192.363281 195.429688 L 192.363281 209.328125 C 192.363281 213.59375 195.835938 217.078125 200.113281 217.078125 L 212.183594 217.078125 C 216.445312 217.078125 219.933594 213.59375 219.933594 209.328125 L 219.933594 178.957031 C 219.933594 176.890625 219.132812 174.941406 217.671875 173.492188 C 216.734375 172.558594 215.222656 172.558594 214.289062 173.492188 " fill-opacity="1" fill-rule="nonzero"/></g><g clip-path="url(#97850e5dd6)"><path fill="#ff914d" d="M 246.582031 209.261719 C 246.582031 210.90625 245.253906 212.238281 243.609375 212.238281 L 231.554688 212.238281 C 229.910156 212.238281 228.582031 210.90625 228.582031 209.261719 L 228.582031 165.925781 L 246.582031 147.921875 Z M 249.6875 139.949219 C 248.832031 139.644531 247.871094 139.871094 247.226562 140.527344 L 227.789062 159.953125 L 224.5 163.242188 C 224.054688 163.6875 223.804688 164.308594 223.804688 164.941406 L 223.804688 209.261719 C 223.804688 213.539062 227.277344 217.015625 231.554688 217.015625 L 243.609375 217.015625 C 247.886719 217.015625 251.359375 213.539062 251.359375 209.261719 L 251.359375 142.921875 C 251.359375 142.59375 251.332031 142.25 251.292969 141.910156 C 251.175781 141 250.542969 140.25 249.6875 139.949219 " fill-opacity="1" fill-rule="nonzero"/></g><g fill="#ffffff" fill-opacity="1"><g transform="translate(92.066278, 248.70265)"><g><path d="M 18.59375 0 L 15.046875 -12.421875 L 11.515625 0 L 5.90625 0 L -0.40625 -22.140625 L 5.203125 -22.140625 L 8.984375 -6.953125 L 9.125 -6.953125 L 13.140625 -22.140625 L 16.953125 -22.140625 L 20.984375 -6.953125 L 21.109375 -6.953125 L 24.890625 -22.140625 L 30.484375 -22.140625 L 24.171875 0 Z M 18.59375 0 "/></g></g></g><g fill="#ffffff" fill-opacity="1"><g transform="translate(124.229908, 248.70265)"><g><path d="M 6.65625 -22.140625 L 6.65625 0 L 1.609375 0 L 1.609375 -22.140625 Z M 6.65625 -22.140625 "/></g></g></g><g fill="#ffffff" fill-opacity="1"><g transform="translate(134.585437, 248.70265)"><g><path d="M 9.765625 -22.53125 C 10.960938 -22.53125 12.132812 -22.351562 13.28125 -22 C 14.425781 -21.65625 15.273438 -21.316406 15.828125 -20.984375 L 16.640625 -20.4375 L 14.59375 -16.421875 C 14.4375 -16.523438 14.210938 -16.660156 13.921875 -16.828125 C 13.640625 -17.003906 13.101562 -17.234375 12.3125 -17.515625 C 11.53125 -17.804688 10.796875 -17.953125 10.109375 -17.953125 C 9.273438 -17.953125 8.628906 -17.769531 8.171875 -17.40625 C 7.710938 -17.050781 7.484375 -16.570312 7.484375 -15.96875 C 7.484375 -15.65625 7.585938 -15.367188 7.796875 -15.109375 C 8.015625 -14.859375 8.382812 -14.582031 8.90625 -14.28125 C 9.425781 -13.988281 9.878906 -13.753906 10.265625 -13.578125 C 10.660156 -13.398438 11.269531 -13.128906 12.09375 -12.765625 C 13.53125 -12.160156 14.753906 -11.332031 15.765625 -10.28125 C 16.773438 -9.238281 17.28125 -8.054688 17.28125 -6.734375 C 17.28125 -5.460938 17.050781 -4.351562 16.59375 -3.40625 C 16.132812 -2.457031 15.503906 -1.710938 14.703125 -1.171875 C 13.910156 -0.640625 13.03125 -0.242188 12.0625 0.015625 C 11.101562 0.273438 10.0625 0.40625 8.9375 0.40625 C 7.96875 0.40625 7.015625 0.304688 6.078125 0.109375 C 5.148438 -0.0859375 4.375 -0.332031 3.75 -0.625 C 3.125 -0.925781 2.5625 -1.21875 2.0625 -1.5 C 1.5625 -1.789062 1.195312 -2.035156 0.96875 -2.234375 L 0.609375 -2.515625 L 3.140625 -6.765625 C 3.347656 -6.585938 3.640625 -6.359375 4.015625 -6.078125 C 4.398438 -5.796875 5.066406 -5.421875 6.015625 -4.953125 C 6.972656 -4.492188 7.820312 -4.265625 8.5625 -4.265625 C 10.6875 -4.265625 11.75 -4.988281 11.75 -6.4375 C 11.75 -6.738281 11.671875 -7.019531 11.515625 -7.28125 C 11.367188 -7.539062 11.101562 -7.800781 10.71875 -8.0625 C 10.332031 -8.320312 9.988281 -8.523438 9.6875 -8.671875 C 9.394531 -8.828125 8.914062 -9.0625 8.25 -9.375 C 7.582031 -9.6875 7.085938 -9.925781 6.765625 -10.09375 C 5.421875 -10.75 4.378906 -11.570312 3.640625 -12.5625 C 2.910156 -13.5625 2.546875 -14.632812 2.546875 -15.78125 C 2.546875 -17.757812 3.28125 -19.378906 4.75 -20.640625 C 6.21875 -21.898438 7.890625 -22.53125 9.765625 -22.53125 Z M 9.765625 -22.53125 "/></g></g></g><g fill="#ffffff" fill-opacity="1"><g transform="translate(154.704984, 248.70265)"><g><path d="M 14.265625 -22.140625 L 14.265625 -17.703125 L 6.65625 -17.703125 L 6.65625 -13.3125 L 13.953125 -13.3125 L 13.953125 -8.875 L 6.65625 -8.875 L 6.65625 -4.421875 L 14.265625 -4.421875 L 14.265625 0 L 1.609375 0 L 1.609375 -22.140625 Z M 14.265625 -22.140625 "/></g></g></g><g fill="#ffffff" fill-opacity="1"><g transform="translate(172.356705, 248.70265)"><g><path d="M 14.40625 -22.140625 L 14.40625 -17.703125 L 6.65625 -17.703125 L 6.65625 -13.3125 L 13.8125 -13.3125 L 13.8125 -8.875 L 6.65625 -8.875 L 6.65625 0 L 1.609375 0 L 1.609375 -22.140625 Z M 14.40625 -22.140625 "/></g></g></g><g fill="#ffffff" fill-opacity="1"><g transform="translate(189.659713, 248.70265)"><g><path d="M 6.65625 -22.140625 L 6.65625 0 L 1.609375 0 L 1.609375 -22.140625 Z M 6.65625 -22.140625 "/></g></g></g><g fill="#ffffff" fill-opacity="1"><g transform="translate(200.015242, 248.70265)"><g><path d="M 6.65625 -13.734375 L 6.65625 0 L 1.609375 0 L 1.609375 -22.140625 L 6.65625 -22.140625 L 15.453125 -8.390625 L 15.5 -8.390625 L 15.5 -22.140625 L 20.546875 -22.140625 L 20.546875 0 L 15.5 0 L 6.703125 -13.734375 Z M 6.65625 -13.734375 "/></g></g></g><g fill="#ffffff" fill-opacity="1"><g transform="translate(224.265717, 248.70265)"><g><path d="M 12.84375 -22.140625 L 21.78125 0 L 16.359375 0 L 14.734375 -4.421875 L 6.296875 -4.421875 L 4.671875 0 L -0.75 0 L 8.1875 -22.140625 Z M 13.015625 -8.859375 L 10.546875 -15.296875 L 10.484375 -15.296875 L 8.015625 -8.859375 Z M 13.015625 -8.859375 "/></g></g></g><g fill="#ffffff" fill-opacity="1"><g transform="translate(247.389579, 248.70265)"><g><path d="M 6.65625 -13.734375 L 6.65625 0 L 1.609375 0 L 1.609375 -22.140625 L 6.65625 -22.140625 L 15.453125 -8.390625 L 15.5 -8.390625 L 15.5 -22.140625 L 20.546875 -22.140625 L 20.546875 0 L 15.5 0 L 6.703125 -13.734375 Z M 6.65625 -13.734375 "/></g></g></g><g fill="#ffffff" fill-opacity="1"><g transform="translate(271.640054, 248.70265)"><g><path d="M 13.390625 -4.5625 C 14.160156 -4.5625 14.90625 -4.675781 15.625 -4.90625 C 16.351562 -5.144531 16.882812 -5.367188 17.21875 -5.578125 L 17.734375 -5.921875 L 19.875 -1.640625 C 19.800781 -1.585938 19.703125 -1.515625 19.578125 -1.421875 C 19.453125 -1.328125 19.160156 -1.160156 18.703125 -0.921875 C 18.253906 -0.679688 17.769531 -0.472656 17.25 -0.296875 C 16.726562 -0.117188 16.046875 0.0390625 15.203125 0.1875 C 14.367188 0.332031 13.503906 0.40625 12.609375 0.40625 C 10.554688 0.40625 8.609375 -0.0976562 6.765625 -1.109375 C 4.921875 -2.117188 3.429688 -3.507812 2.296875 -5.28125 C 1.171875 -7.050781 0.609375 -8.96875 0.609375 -11.03125 C 0.609375 -12.582031 0.941406 -14.070312 1.609375 -15.5 C 2.273438 -16.9375 3.15625 -18.164062 4.25 -19.1875 C 5.351562 -20.207031 6.632812 -21.019531 8.09375 -21.625 C 9.5625 -22.226562 11.066406 -22.53125 12.609375 -22.53125 C 14.035156 -22.53125 15.351562 -22.359375 16.5625 -22.015625 C 17.769531 -21.679688 18.625 -21.34375 19.125 -21 L 19.875 -20.5 L 17.734375 -16.203125 C 17.609375 -16.304688 17.421875 -16.4375 17.171875 -16.59375 C 16.921875 -16.75 16.421875 -16.953125 15.671875 -17.203125 C 14.921875 -17.453125 14.160156 -17.578125 13.390625 -17.578125 C 12.171875 -17.578125 11.078125 -17.378906 10.109375 -16.984375 C 9.148438 -16.585938 8.382812 -16.066406 7.8125 -15.421875 C 7.25 -14.773438 6.820312 -14.082031 6.53125 -13.34375 C 6.238281 -12.601562 6.09375 -11.847656 6.09375 -11.078125 C 6.09375 -9.398438 6.722656 -7.894531 7.984375 -6.5625 C 9.242188 -5.226562 11.046875 -4.5625 13.390625 -4.5625 Z M 13.390625 -4.5625 "/></g></g></g><g fill="#ffffff" fill-opacity="1"><g transform="translate(293.932354, 248.70265)"><g><path d="M 14.265625 -22.140625 L 14.265625 -17.703125 L 6.65625 -17.703125 L 6.65625 -13.3125 L 13.953125 -13.3125 L 13.953125 -8.875 L 6.65625 -8.875 L 6.65625 -4.421875 L 14.265625 -4.421875 L 14.265625 0 L 1.609375 0 L 1.609375 -22.140625 Z M 14.265625 -22.140625 "/></g></g></g></svg>