<svg xmlns="http://www.w3.org/2000/svg" xmlns:xlink="http://www.w3.org/1999/xlink" width="500" zoomAndPan="magnify" viewBox="0 0 375 374.999991" height="500" preserveAspectRatio="xMidYMid meet" version="1.0"><defs><g/><clipPath id="a4444a0c68"><path d="M 26 166.484375 L 55 166.484375 L 55 218.207031 L 26 218.207031 Z M 26 166.484375 " clip-rule="nonzero"/></clipPath><clipPath id="f234168e61"><path d="M 69 92.367188 L 105 92.367188 L 105 157 L 69 157 Z M 69 92.367188 " clip-rule="nonzero"/></clipPath><clipPath id="8a175c23c0"><path d="M 58 174 L 85.914062 174 L 85.914062 218.207031 L 58 218.207031 Z M 58 174 " clip-rule="nonzero"/></clipPath><clipPath id="f662275f9f"><path d="M 89.285156 173.222656 L 118 173.222656 L 118 218.207031 L 89.285156 218.207031 Z M 89.285156 173.222656 " clip-rule="nonzero"/></clipPath><clipPath id="01082e60f7"><path d="M 121 140 L 149 140 L 149 218.207031 L 121 218.207031 Z M 121 140 " clip-rule="nonzero"/></clipPath></defs><g clip-path="url(#a4444a0c68)"><path fill="#ff914d" d="M 49.410156 210.425781 C 49.410156 212.058594 48.078125 213.386719 46.433594 213.386719 L 34.367188 213.386719 C 32.734375 213.386719 31.40625 212.058594 31.40625 210.425781 L 31.40625 191.964844 C 32.511719 191.332031 33.550781 190.542969 34.472656 189.621094 L 49.410156 174.683594 Z M 52.515625 166.710938 C 51.660156 166.421875 50.699219 166.644531 50.054688 167.289062 L 31.089844 186.238281 C 30.222656 187.121094 29.167969 187.832031 28.074219 188.292969 C 27.195312 188.675781 26.628906 189.53125 26.628906 190.488281 L 26.628906 210.425781 C 26.628906 214.691406 30.101562 218.164062 34.367188 218.164062 L 46.449219 218.164062 C 50.710938 218.164062 54.183594 214.691406 54.183594 210.425781 L 54.183594 169.738281 C 54.183594 169.382812 54.160156 169.011719 54.105469 168.683594 C 54 167.777344 53.382812 167.011719 52.515625 166.710938 " fill-opacity="1" fill-rule="nonzero"/></g><path fill="#ff914d" d="M 158.597656 114.109375 C 158.214844 121.886719 157.847656 129.652344 157.492188 137.441406 C 157.441406 138.664062 157.191406 138.808594 156.914062 138.957031 C 156.898438 138.96875 156.886719 138.96875 156.875 138.980469 C 156.714844 138.835938 156.480469 138.601562 156.308594 138.429688 C 156.308594 138.429688 156.1875 138.324219 156.1875 138.308594 L 148.820312 131.007812 C 147.898438 130.085938 146.386719 130.085938 145.449219 131.019531 L 88.808594 187.660156 C 88.21875 188.226562 87.46875 188.542969 86.675781 188.542969 C 86.113281 188.542969 85.28125 188.398438 84.570312 187.6875 L 54.039062 157.15625 C 53.59375 156.707031 52.988281 156.457031 52.355469 156.457031 C 51.722656 156.457031 51.121094 156.707031 50.671875 157.15625 L 26.378906 181.449219 C 25.785156 182.015625 25.035156 182.332031 24.246094 182.332031 C 23.679688 182.332031 22.851562 182.1875 22.140625 181.476562 L 20.8125 180.144531 C 20.257812 179.59375 19.941406 178.84375 19.941406 178.039062 C 19.941406 177.238281 20.257812 176.488281 20.8125 175.933594 L 50.222656 146.523438 C 50.816406 145.957031 51.566406 145.640625 52.355469 145.640625 C 52.921875 145.640625 53.75 145.785156 54.460938 146.496094 L 84.992188 177.027344 C 85.925781 177.960938 87.441406 177.960938 88.375 177.027344 L 139.9375 125.453125 C 140.398438 125.003906 140.648438 124.386719 140.648438 123.742188 C 140.632812 123.097656 140.371094 122.492188 139.910156 122.042969 C 138.105469 120.292969 136.34375 118.515625 134.566406 116.726562 L 132.433594 114.597656 C 132.316406 114.476562 132.078125 114.226562 131.933594 114.054688 C 131.933594 114.054688 131.933594 114.054688 131.949219 114.042969 C 131.988281 113.949219 132.015625 113.910156 132.015625 113.898438 C 132.183594 113.832031 132.738281 113.804688 133.09375 113.78125 L 157.386719 112.636719 L 157.769531 112.636719 C 158.28125 112.636719 158.519531 112.6875 158.519531 112.699219 C 158.558594 112.765625 158.636719 113.015625 158.625 113.609375 Z M 161.992188 109.410156 C 160.992188 108.382812 159.570312 107.859375 157.769531 107.859375 L 132.871094 109.015625 C 131.488281 109.082031 128.921875 109.199219 127.617188 112.03125 C 126.171875 115.097656 128.183594 117.109375 129.054688 117.976562 L 131.160156 120.097656 C 132.394531 121.332031 133.605469 122.570312 134.855469 123.78125 L 86.675781 171.949219 L 57.84375 143.113281 C 56.382812 141.667969 54.433594 140.863281 52.355469 140.863281 C 50.316406 140.863281 48.382812 141.652344 46.867188 143.113281 L 17.429688 172.554688 C 15.96875 174.011719 15.164062 175.960938 15.164062 178.039062 C 15.164062 180.121094 15.96875 182.066406 17.429688 183.527344 L 18.757812 184.859375 C 20.21875 186.304688 22.167969 187.109375 24.246094 187.109375 C 26.285156 187.109375 28.21875 186.316406 29.734375 184.859375 L 52.355469 162.234375 L 81.191406 191.070312 C 82.652344 192.53125 84.597656 193.320312 86.675781 193.320312 C 88.71875 193.320312 90.652344 192.53125 92.164062 191.070312 L 147.148438 136.085938 L 152.914062 141.8125 C 153.703125 142.601562 154.914062 143.8125 156.820312 143.8125 C 157.585938 143.8125 158.375 143.601562 159.164062 143.179688 C 162.113281 141.585938 162.242188 138.613281 162.269531 137.640625 C 162.625 129.863281 162.992188 122.109375 163.363281 114.347656 L 163.386719 113.820312 C 163.46875 111.9375 162.992188 110.449219 161.992188 109.410156 " fill-opacity="1" fill-rule="nonzero"/><g clip-path="url(#f234168e61)"><path fill="#ff914d" d="M 74.386719 141.785156 C 74.675781 140.679688 74.992188 139.558594 75.320312 138.429688 C 77.769531 139.613281 80.464844 140.375 83.558594 140.769531 C 85.953125 141.035156 88.097656 140.746094 90.113281 139.875 C 92.363281 138.890625 93.890625 136.953125 94.21875 134.703125 C 94.535156 132.441406 93.585938 130.136719 91.652344 128.558594 C 90.664062 127.753906 89.492188 127.070312 88.085938 126.453125 C 87.203125 126.070312 86.324219 125.730469 85.441406 125.375 C 83.519531 124.597656 81.703125 123.875 80.046875 122.886719 C 76.082031 120.519531 74.347656 117.660156 74.582031 113.871094 C 74.859375 109.304688 77.308594 106.238281 82.152344 104.488281 C 85.203125 103.382812 85.863281 102.449219 85.863281 99.183594 L 85.847656 98.355469 C 85.847656 97.960938 85.847656 97.566406 85.847656 97.132812 L 87.152344 97.132812 C 87.597656 97.132812 88.074219 97.132812 88.453125 97.144531 C 88.46875 97.527344 88.46875 98 88.46875 98.449219 C 88.46875 102.238281 89.335938 103.25 93.125 103.84375 C 94.664062 104.082031 96.230469 104.515625 97.878906 105.210938 L 97.625 106.082031 C 97.375 106.988281 97.113281 107.898438 96.835938 108.792969 C 93.785156 107.464844 90.558594 106.882812 87.191406 107.066406 C 86.308594 107.132812 85.136719 107.265625 83.953125 107.765625 C 81.875 108.671875 80.464844 110.4375 80.191406 112.476562 C 79.925781 114.503906 80.808594 116.542969 82.53125 117.925781 C 84.070312 119.1875 85.769531 119.976562 87.097656 120.53125 L 87.636719 120.753906 C 89.890625 121.675781 92.019531 122.542969 94.058594 123.675781 C 97.0625 125.335938 99.128906 128.125 99.734375 131.320312 C 100.3125 134.347656 99.535156 137.335938 97.5625 139.746094 C 96.007812 141.601562 94.007812 142.890625 91.558594 143.574219 C 89.21875 144.246094 87.980469 145.902344 88.085938 148.273438 C 88.125 149.089844 88.113281 149.890625 88.097656 150.695312 C 88.097656 150.917969 88.097656 151.140625 88.085938 151.378906 C 87.152344 151.390625 86.230469 151.390625 85.269531 151.378906 C 85.269531 151.0625 85.269531 150.746094 85.257812 150.445312 C 85.257812 149.984375 85.242188 149.535156 85.242188 149.050781 C 85.203125 145.851562 84.28125 144.785156 81.152344 144.273438 C 78.441406 143.863281 76.332031 143.257812 74.53125 142.390625 C 74.425781 142.335938 74.332031 142.296875 74.253906 142.257812 C 74.28125 142.125 74.320312 141.980469 74.386719 141.785156 Z M 72.453125 146.691406 C 74.703125 147.773438 77.230469 148.507812 80.398438 148.996094 C 80.425781 148.996094 80.441406 148.996094 80.464844 149.007812 C 80.464844 149.035156 80.464844 149.0625 80.464844 149.074219 C 80.464844 149.5625 80.464844 150.035156 80.480469 150.507812 C 80.480469 150.96875 80.492188 151.417969 80.492188 151.878906 C 80.492188 154.378906 82.136719 156.089844 84.597656 156.140625 C 85.308594 156.15625 86.007812 156.167969 86.703125 156.167969 C 87.414062 156.167969 88.113281 156.15625 88.835938 156.140625 C 91.246094 156.089844 92.875 154.417969 92.875 151.996094 C 92.875 151.589844 92.875 151.179688 92.890625 150.757812 C 92.902344 149.902344 92.914062 149.050781 92.875 148.167969 C 96.246094 147.21875 99.0625 145.417969 101.246094 142.796875 C 104.113281 139.324219 105.273438 134.808594 104.429688 130.425781 C 103.5625 125.835938 100.628906 121.847656 96.375 119.492188 C 94.101562 118.226562 91.730469 117.265625 89.453125 116.320312 L 88.929688 116.109375 C 87.914062 115.6875 86.625 115.097656 85.558594 114.214844 C 85.113281 113.859375 84.886719 113.464844 84.941406 113.109375 C 84.980469 112.738281 85.335938 112.386719 85.847656 112.160156 C 86.242188 111.988281 86.742188 111.898438 87.492188 111.84375 C 90.296875 111.6875 92.902344 112.199219 95.429688 113.398438 C 96.046875 113.699219 97.46875 114.398438 98.957031 113.78125 C 100.441406 113.160156 100.957031 111.632812 101.179688 110.949219 C 101.546875 109.765625 101.890625 108.59375 102.234375 107.398438 L 102.601562 106.121094 C 103.273438 103.921875 102.3125 101.910156 100.191406 101 C 98.085938 100.066406 95.941406 99.433594 93.851562 99.121094 C 93.652344 99.09375 93.441406 99.054688 93.246094 99.027344 C 93.246094 98.828125 93.246094 98.632812 93.246094 98.433594 C 93.207031 93.433594 92.125 92.355469 87.152344 92.355469 L 85.453125 92.355469 C 82.441406 92.460938 81.136719 93.789062 81.085938 96.738281 C 81.058594 97.316406 81.070312 97.871094 81.070312 98.421875 L 81.085938 99.183594 C 81.085938 99.371094 81.085938 99.59375 81.085938 99.789062 C 80.886719 99.855469 80.664062 99.949219 80.414062 100.027344 C 73.871094 102.410156 70.203125 107.09375 69.804688 113.582031 C 69.464844 119.1875 72.082031 123.703125 77.597656 127.003906 C 79.570312 128.175781 81.652344 129.007812 83.664062 129.808594 C 84.507812 130.152344 85.335938 130.480469 86.175781 130.847656 C 87.203125 131.296875 87.992188 131.757812 88.636719 132.269531 C 89.257812 132.78125 89.574219 133.429688 89.480469 134.046875 C 89.390625 134.652344 88.941406 135.179688 88.203125 135.492188 C 86.980469 136.019531 85.636719 136.191406 84.125 136.019531 C 81.320312 135.679688 78.941406 134.953125 76.820312 133.835938 C 76.136719 133.480469 74.714844 132.71875 73.203125 133.347656 C 71.675781 133.980469 71.203125 135.558594 70.976562 136.296875 C 70.53125 137.71875 70.148438 139.125 69.753906 140.585938 C 68.871094 143.667969 69.597656 145.3125 72.453125 146.691406 " fill-opacity="1" fill-rule="nonzero"/></g><g clip-path="url(#8a175c23c0)"><path fill="#ff914d" d="M 80.875 210.453125 C 80.875 212.085938 79.546875 213.414062 77.898438 213.414062 L 65.832031 213.414062 C 64.199219 213.414062 62.871094 212.085938 62.871094 210.453125 L 62.871094 182.398438 L 75.042969 194.570312 L 76.359375 195.898438 C 77.675781 197.203125 79.203125 198.242188 80.875 198.964844 Z M 83.925781 194.992188 C 82.375 194.542969 80.925781 193.6875 79.742188 192.515625 L 62.910156 175.671875 C 62.382812 175.160156 61.648438 174.894531 60.921875 174.988281 C 60.1875 175.078125 59.542969 175.515625 59.160156 176.144531 C 58.460938 177.316406 58.09375 178.683594 58.09375 180.066406 L 58.09375 210.453125 C 58.09375 214.71875 61.566406 218.207031 65.832031 218.207031 L 77.898438 218.207031 C 82.175781 218.207031 85.652344 214.71875 85.652344 210.453125 L 85.652344 197.292969 C 85.652344 196.226562 84.953125 195.292969 83.925781 194.992188 " fill-opacity="1" fill-rule="nonzero"/></g><g clip-path="url(#f662275f9f)"><path fill="#ff914d" d="M 112.339844 210.453125 C 112.339844 212.085938 111.011719 213.414062 109.378906 213.414062 L 97.3125 213.414062 C 95.679688 213.414062 94.335938 212.085938 94.335938 210.453125 L 94.335938 197.976562 C 95.285156 197.386719 96.167969 196.6875 96.96875 195.886719 L 112.339844 180.515625 Z M 111.484375 174.617188 L 93.585938 192.515625 C 92.796875 193.292969 91.902344 193.925781 90.914062 194.398438 C 90.085938 194.792969 89.558594 195.636719 89.558594 196.558594 L 89.558594 210.453125 C 89.558594 214.71875 93.035156 218.207031 97.3125 218.207031 L 109.378906 218.207031 C 113.644531 218.207031 117.128906 214.71875 117.128906 210.453125 L 117.128906 180.082031 C 117.128906 178.015625 116.328125 176.066406 114.867188 174.617188 C 113.933594 173.683594 112.417969 173.683594 111.484375 174.617188 " fill-opacity="1" fill-rule="nonzero"/></g><g clip-path="url(#01082e60f7)"><path fill="#ff914d" d="M 143.78125 210.386719 C 143.78125 212.03125 142.449219 213.363281 140.804688 213.363281 L 128.75 213.363281 C 127.105469 213.363281 125.777344 212.03125 125.777344 210.386719 L 125.777344 167.050781 L 143.78125 149.050781 Z M 146.886719 141.074219 C 146.03125 140.769531 145.070312 140.996094 144.425781 141.652344 L 124.988281 161.078125 L 121.695312 164.367188 C 121.25 164.816406 121 165.433594 121 166.066406 L 121 210.386719 C 121 214.664062 124.472656 218.140625 128.75 218.140625 L 140.804688 218.140625 C 145.082031 218.140625 148.554688 214.664062 148.554688 210.386719 L 148.554688 144.046875 C 148.554688 143.71875 148.53125 143.375 148.492188 143.035156 C 148.371094 142.125 147.742188 141.375 146.886719 141.074219 " fill-opacity="1" fill-rule="nonzero"/></g><g fill="#ffffff" fill-opacity="1"><g transform="translate(167.604673, 178.646874)"><g><path d="M 17.671875 0 L 14.3125 -11.8125 L 10.9375 0 L 5.609375 0 L -0.375 -21.03125 L 4.953125 -21.03125 L 8.546875 -6.609375 L 8.671875 -6.609375 L 12.5 -21.03125 L 16.109375 -21.03125 L 19.9375 -6.609375 L 20.0625 -6.609375 L 23.65625 -21.03125 L 28.96875 -21.03125 L 22.96875 0 Z M 17.671875 0 "/></g></g></g><g fill="#ffffff" fill-opacity="1"><g transform="translate(198.17079, 178.646874)"><g><path d="M 6.328125 -21.03125 L 6.328125 0 L 1.53125 0 L 1.53125 -21.03125 Z M 6.328125 -21.03125 "/></g></g></g><g fill="#ffffff" fill-opacity="1"><g transform="translate(208.011977, 178.646874)"><g><path d="M 9.28125 -21.421875 C 10.414062 -21.421875 11.523438 -21.253906 12.609375 -20.921875 C 13.703125 -20.585938 14.515625 -20.257812 15.046875 -19.9375 L 15.8125 -19.4375 L 13.875 -15.609375 C 13.71875 -15.710938 13.503906 -15.84375 13.234375 -16 C 12.960938 -16.164062 12.453125 -16.382812 11.703125 -16.65625 C 10.953125 -16.925781 10.253906 -17.0625 9.609375 -17.0625 C 8.816406 -17.0625 8.203125 -16.890625 7.765625 -16.546875 C 7.328125 -16.210938 7.109375 -15.753906 7.109375 -15.171875 C 7.109375 -14.878906 7.207031 -14.609375 7.40625 -14.359375 C 7.613281 -14.117188 7.960938 -13.859375 8.453125 -13.578125 C 8.953125 -13.296875 9.390625 -13.066406 9.765625 -12.890625 C 10.140625 -12.722656 10.71875 -12.472656 11.5 -12.140625 C 12.863281 -11.554688 14.023438 -10.765625 14.984375 -9.765625 C 15.941406 -8.773438 16.421875 -7.65625 16.421875 -6.40625 C 16.421875 -5.195312 16.203125 -4.140625 15.765625 -3.234375 C 15.335938 -2.335938 14.742188 -1.632812 13.984375 -1.125 C 13.234375 -0.613281 12.394531 -0.238281 11.46875 0 C 10.550781 0.25 9.554688 0.375 8.484375 0.375 C 7.566406 0.375 6.664062 0.28125 5.78125 0.09375 C 4.90625 -0.0820312 4.164062 -0.3125 3.5625 -0.59375 C 2.96875 -0.875 2.429688 -1.148438 1.953125 -1.421875 C 1.484375 -1.703125 1.140625 -1.929688 0.921875 -2.109375 L 0.59375 -2.390625 L 2.984375 -6.421875 C 3.191406 -6.253906 3.472656 -6.035156 3.828125 -5.765625 C 4.179688 -5.503906 4.8125 -5.148438 5.71875 -4.703125 C 6.632812 -4.265625 7.441406 -4.046875 8.140625 -4.046875 C 10.160156 -4.046875 11.171875 -4.738281 11.171875 -6.125 C 11.171875 -6.40625 11.097656 -6.671875 10.953125 -6.921875 C 10.804688 -7.171875 10.550781 -7.414062 10.1875 -7.65625 C 9.820312 -7.90625 9.5 -8.101562 9.21875 -8.25 C 8.9375 -8.394531 8.476562 -8.613281 7.84375 -8.90625 C 7.207031 -9.207031 6.734375 -9.4375 6.421875 -9.59375 C 5.148438 -10.21875 4.164062 -11 3.46875 -11.9375 C 2.769531 -12.882812 2.421875 -13.90625 2.421875 -15 C 2.421875 -16.882812 3.117188 -18.425781 4.515625 -19.625 C 5.910156 -20.820312 7.5 -21.421875 9.28125 -21.421875 Z M 9.28125 -21.421875 "/></g></g></g><g fill="#ffffff" fill-opacity="1"><g transform="translate(227.132221, 178.646874)"><g><path d="M 13.5625 -21.03125 L 13.5625 -16.828125 L 6.328125 -16.828125 L 6.328125 -12.640625 L 13.265625 -12.640625 L 13.265625 -8.4375 L 6.328125 -8.4375 L 6.328125 -4.203125 L 13.5625 -4.203125 L 13.5625 0 L 1.53125 0 L 1.53125 -21.03125 Z M 13.5625 -21.03125 "/></g></g></g><g fill="#ffffff" fill-opacity="1"><g transform="translate(243.907211, 178.646874)"><g><path d="M 13.6875 -21.03125 L 13.6875 -16.828125 L 6.328125 -16.828125 L 6.328125 -12.640625 L 13.125 -12.640625 L 13.125 -8.4375 L 6.328125 -8.4375 L 6.328125 0 L 1.53125 0 L 1.53125 -21.03125 Z M 13.6875 -21.03125 "/></g></g></g><g fill="#ffffff" fill-opacity="1"><g transform="translate(260.350809, 178.646874)"><g><path d="M 6.328125 -21.03125 L 6.328125 0 L 1.53125 0 L 1.53125 -21.03125 Z M 6.328125 -21.03125 "/></g></g></g><g fill="#ffffff" fill-opacity="1"><g transform="translate(270.191996, 178.646874)"><g><path d="M 6.328125 -13.0625 L 6.328125 0 L 1.53125 0 L 1.53125 -21.03125 L 6.328125 -21.03125 L 14.6875 -7.984375 L 14.734375 -7.984375 L 14.734375 -21.03125 L 19.53125 -21.03125 L 19.53125 0 L 14.734375 0 L 6.375 -13.0625 Z M 6.328125 -13.0625 "/></g></g></g><g fill="#ffffff" fill-opacity="1"><g transform="translate(293.237992, 178.646874)"><g><path d="M 12.21875 -21.03125 L 20.703125 0 L 15.5625 0 L 14 -4.203125 L 6 -4.203125 L 4.4375 0 L -0.71875 0 L 7.78125 -21.03125 Z M 12.375 -8.421875 L 10.015625 -14.53125 L 9.96875 -14.53125 L 7.625 -8.421875 Z M 12.375 -8.421875 "/></g></g></g><g fill="#ffffff" fill-opacity="1"><g transform="translate(315.213331, 178.646874)"><g><path d="M 6.328125 -13.0625 L 6.328125 0 L 1.53125 0 L 1.53125 -21.03125 L 6.328125 -21.03125 L 14.6875 -7.984375 L 14.734375 -7.984375 L 14.734375 -21.03125 L 19.53125 -21.03125 L 19.53125 0 L 14.734375 0 L 6.375 -13.0625 Z M 6.328125 -13.0625 "/></g></g></g><g fill="#ffffff" fill-opacity="1"><g transform="translate(338.259327, 178.646874)"><g><path d="M 12.71875 -4.328125 C 13.457031 -4.328125 14.171875 -4.4375 14.859375 -4.65625 C 15.546875 -4.882812 16.050781 -5.097656 16.375 -5.296875 L 16.859375 -5.640625 L 18.890625 -1.5625 C 18.828125 -1.507812 18.734375 -1.4375 18.609375 -1.34375 C 18.492188 -1.257812 18.21875 -1.101562 17.78125 -0.875 C 17.351562 -0.644531 16.890625 -0.445312 16.390625 -0.28125 C 15.898438 -0.113281 15.253906 0.0351562 14.453125 0.171875 C 13.660156 0.304688 12.835938 0.375 11.984375 0.375 C 10.023438 0.375 8.171875 -0.101562 6.421875 -1.0625 C 4.671875 -2.019531 3.257812 -3.335938 2.1875 -5.015625 C 1.125 -6.703125 0.59375 -8.523438 0.59375 -10.484375 C 0.59375 -11.960938 0.90625 -13.378906 1.53125 -14.734375 C 2.15625 -16.097656 2.988281 -17.265625 4.03125 -18.234375 C 5.082031 -19.203125 6.304688 -19.972656 7.703125 -20.546875 C 9.097656 -21.128906 10.523438 -21.421875 11.984375 -21.421875 C 13.347656 -21.421875 14.601562 -21.257812 15.75 -20.9375 C 16.894531 -20.613281 17.707031 -20.289062 18.1875 -19.96875 L 18.890625 -19.484375 L 16.859375 -15.40625 C 16.734375 -15.507812 16.550781 -15.628906 16.3125 -15.765625 C 16.082031 -15.910156 15.609375 -16.101562 14.890625 -16.34375 C 14.179688 -16.582031 13.457031 -16.703125 12.71875 -16.703125 C 11.5625 -16.703125 10.523438 -16.515625 9.609375 -16.140625 C 8.691406 -15.765625 7.960938 -15.269531 7.421875 -14.65625 C 6.890625 -14.050781 6.484375 -13.394531 6.203125 -12.6875 C 5.921875 -11.976562 5.78125 -11.257812 5.78125 -10.53125 C 5.78125 -8.9375 6.378906 -7.503906 7.578125 -6.234375 C 8.785156 -4.960938 10.5 -4.328125 12.71875 -4.328125 Z M 12.71875 -4.328125 "/></g></g></g><g fill="#ffffff" fill-opacity="1"><g transform="translate(359.444406, 178.646874)"><g><path d="M 13.5625 -21.03125 L 13.5625 -16.828125 L 6.328125 -16.828125 L 6.328125 -12.640625 L 13.265625 -12.640625 L 13.265625 -8.4375 L 6.328125 -8.4375 L 6.328125 -4.203125 L 13.5625 -4.203125 L 13.5625 0 L 1.53125 0 L 1.53125 -21.03125 Z M 13.5625 -21.03125 "/></g></g></g></svg>